<svg xmlns="http://www.w3.org/2000/svg"version="1.1" width="240" height="240" viewBox="0 0 240 240" xml:space="preserve">
<defs>
</defs>
<g transform="matrix(1.51 0 0 1.51 121.39 119.37)"  >
<g style=""   >
		<g transform="matrix(1 0 0 1 0 13.42)"  >
<path style="stroke: none; stroke-width: 1; stroke-dasharray: none; stroke-linecap: butt; stroke-dashoffset: 0; stroke-linejoin: miter; stroke-miterlimit: 4; fill: rgb(77,76,75); fill-rule: evenodd; opacity: 1;"  transform=" translate(-169, -87.47)" d="M 169.03 34.22 c 6.96 -3.48 15.41 -5.38 23.13 -6.04 l 8.69 -0.76 c 9.51 -0.82 19.03 -0.32 28.55 -0.32 l 5.23 0 l 0 5.22 c 0 23.19 0 46.38 0 69.58 l 0 2.66 c 0 23.94 -19.58 43.52 -43.53 43.52 l -87.73 0 l 0 -120.98 l 5.22 0 c 9.54 0 19.02 -0.62 28.56 0.11 l 8.68 0.66 c 8.25 0.62 15.8 2.62 23.2 6.35 z" stroke-linecap="round" />
</g>
		<g transform="matrix(1 0 0 1 -0.01 13.49)"  >
<path style="stroke: none; stroke-width: 1; stroke-dasharray: none; stroke-linecap: butt; stroke-dashoffset: 0; stroke-linejoin: miter; stroke-miterlimit: 4; fill: rgb(95,183,78); fill-rule: evenodd; opacity: 1;"  transform=" translate(-169, -87.52)" d="M 108.59 32.32 l 0 59.6 l 0 9.98 l 0 2.66 l 0 38.3 l 38.3 0 l 6.01 0 l 38.2 0 c 21.07 0 38.3 -17.24 38.3 -38.3 l 0 -2.66 c 0 -23.06 0 -45.55 0 -69.58 c -9.15 0 -18.82 -0.22 -28.1 0.3 l -8.69 0.75 c -8.5 1.04 -17.1 3.02 -23.61 6.78 c -7.04 -4.06 -14.71 -6.08 -23.57 -7.08 l -8.68 -0.66 c -9.47 -0.44 -19.18 -0.09 -28.16 -0.09 z" stroke-linecap="round" />
</g>
		<g transform="matrix(1 0 0 1 -1.45 48.96)"  >
<path style="stroke: none; stroke-width: 1; stroke-dasharray: none; stroke-linecap: butt; stroke-dashoffset: 0; stroke-linejoin: miter; stroke-miterlimit: 4; fill: rgb(137,196,95); fill-rule: evenodd; opacity: 1;"  transform=" translate(-167.55, -123.01)" d="M 119.43 142.86 l 27.46 0 l 6.01 0 l 38.2 0 c 9.34 0 17.91 -3.39 24.57 -8.98 c -7.78 -18.07 -25.75 -30.72 -46.67 -30.72 c -24.25 0 -44.52 16.98 -49.57 39.7 z" stroke-linecap="round" />
</g>
		<g transform="matrix(1 0 0 1 30.19 13.52)"  >
<path style="stroke: none; stroke-width: 1; stroke-dasharray: none; stroke-linecap: butt; stroke-dashoffset: 0; stroke-linejoin: miter; stroke-miterlimit: 4; fill: rgb(74,158,75); fill-rule: evenodd; opacity: 1;"  transform=" translate(-199.2, -87.57)" d="M 169 142.86 l 22.55 -0.34 c 9.21 0 17.59 -3.24 24.12 -8.64 c 8.41 -6.94 13.73 -17.46 13.73 -29.32 l 0 -2.66 c 0 -23.06 0 -45.55 0 -69.58 c -9.15 0 -18.82 -0.22 -28.1 0.3 l -8.69 0.75 c -8.5 1.04 -17.1 3.02 -23.61 6.78 l 0 102.71 z" stroke-linecap="round" />
</g>
		<g transform="matrix(1 0 0 1 23.33 48.96)"  >
<path style="stroke: none; stroke-width: 1; stroke-dasharray: none; stroke-linecap: butt; stroke-dashoffset: 0; stroke-linejoin: miter; stroke-miterlimit: 4; fill: rgb(95,183,78); fill-rule: evenodd; opacity: 1;"  transform=" translate(-192.34, -123.01)" d="M 169 142.86 l 22.24 0 c 9.34 0 17.77 -3.38 24.43 -8.98 c -7.69 -17.87 -26.05 -30.44 -46.67 -30.72 l 0 39.7 z" stroke-linecap="round" />
</g>
		<g transform="matrix(1 0 0 1 0.03 -59.17)"  >
<path style="stroke: none; stroke-width: 1; stroke-dasharray: none; stroke-linecap: butt; stroke-dashoffset: 0; stroke-linejoin: miter; stroke-miterlimit: 4; fill: rgb(77,76,75); fill-rule: evenodd; opacity: 1;"  transform=" translate(-169.03, -14.88)" d="M 201.3 29.01 c -1.66 -16.31 -15.44 -29.01 -32.16 -29.01 c -16.73 0 -30.5 12.59 -32.39 28.8 l 8.68 0.67 c 1.54 -11.71 11.52 -20.76 23.67 -20.76 c 12.15 0 22.22 9.2 23.51 21.04 l 8.69 -0.74 z" stroke-linecap="round" />
</g>
		<g transform="matrix(1 0 0 1 0 35.39)"  >
<path style="stroke: none; stroke-width: 1; stroke-dasharray: none; stroke-linecap: butt; stroke-dashoffset: 0; stroke-linejoin: miter; stroke-miterlimit: 4; fill: rgb(77,76,75); fill-rule: evenodd; opacity: 1;"  transform=" translate(-169, -109.44)" d="M 183.12 108.25 c -3.78 4 -7.56 8.01 -11.34 12.01 l -2.78 2.95 l -2.78 -2.95 c -3.79 -4 -7.57 -8.01 -11.35 -12.01 l -1.96 -2.08 l 1.43 -2.47 c 3.04 -5.23 8.71 -8.04 14.66 -8.04 c 5.94 0 11.61 2.81 14.65 8.04 l 1.43 2.47 l -1.96 2.08 z" stroke-linecap="round" />
</g>
		<g transform="matrix(1 0 0 1 -0.01 34.51)"  >
<path style="stroke: none; stroke-width: 1; stroke-dasharray: none; stroke-linecap: butt; stroke-dashoffset: 0; stroke-linejoin: miter; stroke-miterlimit: 4; fill: rgb(253,248,180); fill-rule: evenodd; opacity: 1;"  transform=" translate(-169, -108.56)" d="M 180.34 105.63 c -3.78 4 -7.56 8 -11.34 12.01 c -3.78 -4.01 -7.57 -8.01 -11.35 -12.01 c 2.39 -4.12 6.87 -6.16 11.35 -6.15 c 4.47 -0.01 8.95 2.03 11.34 6.15 z" stroke-linecap="round" />
</g>
		<g transform="matrix(1 0 0 1 5.66 34.51)"  >
<path style="stroke: none; stroke-width: 1; stroke-dasharray: none; stroke-linecap: butt; stroke-dashoffset: 0; stroke-linejoin: miter; stroke-miterlimit: 4; fill: rgb(252,208,102); fill-rule: evenodd; opacity: 1;"  transform=" translate(-174.67, -108.56)" d="M 180.34 105.63 c -3.78 4 -7.56 8 -11.34 12.01 l 0 -18.16 c 4.47 -0.01 8.95 2.03 11.34 6.15 z" stroke-linecap="round" />
</g>
		<g transform="matrix(1 0 0 1 -28.34 4.04)"  >
<path style="stroke: none; stroke-width: 1; stroke-dasharray: none; stroke-linecap: butt; stroke-dashoffset: 0; stroke-linejoin: miter; stroke-miterlimit: 4; fill: rgb(77,76,75); fill-rule: evenodd; opacity: 1;"  transform=" translate(-140.66, -78.08)" d="M 140.65 47.39 c 16.95 0 30.69 13.75 30.69 30.69 c 0 16.94 -13.74 30.69 -30.69 30.69 c -16.95 0 -30.68 -13.75 -30.68 -30.69 c 0 -16.94 13.73 -30.69 30.68 -30.69 z" stroke-linecap="round" />
</g>
		<g transform="matrix(1 0 0 1 -28.35 4.04)"  >
<path style="stroke: none; stroke-width: 1; stroke-dasharray: none; stroke-linecap: butt; stroke-dashoffset: 0; stroke-linejoin: miter; stroke-miterlimit: 4; fill: rgb(238,239,238); fill-rule: evenodd; opacity: 1;"  transform=" translate(-140.65, -78.07)" d="M 140.65 52.61 c 14.06 0 25.47 11.41 25.47 25.47 c 0 14.06 -11.41 25.46 -25.47 25.46 c -14.07 0 -25.47 -11.4 -25.47 -25.46 c 0 -14.06 11.4 -25.47 25.47 -25.47 z" stroke-linecap="round" />
</g>
		<g transform="matrix(1 0 0 1 -28.34 -3.04)"  >
<path style="stroke: none; stroke-width: 1; stroke-dasharray: none; stroke-linecap: butt; stroke-dashoffset: 0; stroke-linejoin: miter; stroke-miterlimit: 4; fill: rgb(254,254,254); fill-rule: evenodd; opacity: 1;"  transform=" translate(-140.66, -71)" d="M 140.65 52.61 c 11.61 0 21.4 7.77 24.47 18.39 c -3.07 10.62 -12.86 18.39 -24.47 18.39 c -11.61 0 -21.4 -7.77 -24.46 -18.39 c 3.06 -10.62 12.85 -18.39 24.46 -18.39 z" stroke-linecap="round" />
</g>
		<g transform="matrix(1 0 0 1 28.33 4.04)"  >
<path style="stroke: none; stroke-width: 1; stroke-dasharray: none; stroke-linecap: butt; stroke-dashoffset: 0; stroke-linejoin: miter; stroke-miterlimit: 4; fill: rgb(77,76,75); fill-rule: evenodd; opacity: 1;"  transform=" translate(-197.34, -78.08)" d="M 197.34 47.39 c 16.95 0 30.69 13.75 30.69 30.69 c 0 16.94 -13.74 30.69 -30.69 30.69 c -16.94 0 -30.69 -13.74 -30.69 -30.69 c 0 -16.94 13.75 -30.69 30.69 -30.69 z" stroke-linecap="round" />
</g>
		<g transform="matrix(1 0 0 1 28.34 4.04)"  >
<path style="stroke: none; stroke-width: 1; stroke-dasharray: none; stroke-linecap: butt; stroke-dashoffset: 0; stroke-linejoin: miter; stroke-miterlimit: 4; fill: rgb(238,239,238); fill-rule: evenodd; opacity: 1;"  transform=" translate(-197.34, -78.07)" d="M 197.34 52.61 c 14.07 0 25.47 11.41 25.47 25.47 c 0 14.06 -11.4 25.46 -25.47 25.46 c -14.06 0 -25.46 -11.4 -25.46 -25.46 c 0 -14.06 11.4 -25.47 25.46 -25.47 z" stroke-linecap="round" />
</g>
		<g transform="matrix(1 0 0 1 28.33 -3.04)"  >
<path style="stroke: none; stroke-width: 1; stroke-dasharray: none; stroke-linecap: butt; stroke-dashoffset: 0; stroke-linejoin: miter; stroke-miterlimit: 4; fill: rgb(254,254,254); fill-rule: evenodd; opacity: 1;"  transform=" translate(-197.34, -71)" d="M 197.34 52.61 c 11.61 0 21.41 7.77 24.47 18.39 c -3.06 10.62 -12.86 18.39 -24.47 18.39 c -11.61 0 -21.4 -7.77 -24.47 -18.39 c 3.07 -10.62 12.86 -18.39 24.47 -18.39 z" stroke-linecap="round" />
</g>
		<g transform="matrix(1 0 0 1 -25.15 4.64)"  >
<path style="stroke: none; stroke-width: 1; stroke-dasharray: none; stroke-linecap: butt; stroke-dashoffset: 0; stroke-linejoin: miter; stroke-miterlimit: 4; fill: rgb(77,76,75); fill-rule: evenodd; opacity: 1;"  transform=" translate(-143.85, -78.69)" d="M 143.85 62.24 c 9.08 0 16.45 7.36 16.45 16.44 c 0 9.09 -7.37 16.45 -16.45 16.45 c -9.09 0 -16.45 -7.36 -16.45 -16.45 c 0 -3.03 0.83 -5.87 2.25 -8.3 c 1.18 2.9 4.02 4.94 7.35 4.94 c 4.37 0 7.92 -3.54 7.92 -7.92 c 0 -1.97 -0.71 -3.76 -1.9 -5.14 c 0.28 -0.02 0.56 -0.02 0.83 -0.02 z" stroke-linecap="round" />
</g>
		<g transform="matrix(1 0 0 1 25.13 4.64)"  >
<path style="stroke: none; stroke-width: 1; stroke-dasharray: none; stroke-linecap: butt; stroke-dashoffset: 0; stroke-linejoin: miter; stroke-miterlimit: 4; fill: rgb(77,76,75); fill-rule: evenodd; opacity: 1;"  transform=" translate(-194.14, -78.69)" d="M 194.14 62.24 c 9.09 0 16.45 7.36 16.45 16.44 c 0 9.09 -7.36 16.45 -16.45 16.45 c -9.08 0 -16.45 -7.36 -16.45 -16.45 c 0 -3.03 0.82 -5.87 2.25 -8.3 c 1.18 2.9 4.03 4.94 7.35 4.94 c 4.38 0 7.92 -3.54 7.92 -7.92 c 0 -1.97 -0.71 -3.76 -1.9 -5.14 c 0.28 -0.02 0.55 -0.02 0.83 -0.02 z" stroke-linecap="round" />
</g>
</g>
</g>
</svg>